# xmcd CD database file
#
# Track frame offsets:
#	150
#	12599
#	26212
#	40295
#	54517
#	68304
#	81813
#	93956
#	107358
#	121006
#	135305
#	148923
#
# Disc length: 2163 seconds
#
# Revision: 4
# Processed by: cddbd v1.5.2PL0 Copyright (c) Steve Scherf et al.
# Submitted via: CDex 1.51
#
DISCID=9408710c
DTITLE=Thelonious Monk - Vol.02 - Mysterioso
DYEAR=1900
DGENRE=Jazz
TTITLE0=Mysterioso
TTITLE1=Off Minor
TTITLE2=Epistrophy
TTITLE3=Ruby My Dear
TTITLE4=Nice Work If You Can Get It
TTITLE5=Well, You Needn't
TTITLE6=Who Knows
TTITLE7=In Walked Bud
TTITLE8=Nice Work If You Can Get It
TTITLE9=Round Midnight
TTITLE10=Suburban Eyes
TTITLE11=All The Things You Are
EXTD=
EXTT0=
EXTT1=
EXTT2=
EXTT3=
EXTT4=
EXTT5=
EXTT6=
EXTT7=
EXTT8=
EXTT9=
EXTT10=
EXTT11=
PLAYORDER=
